<svg width="196" height="130" viewBox="0 0 196 130" fill="none" xmlns="http://www.w3.org/2000/svg">
<path d="M97.9551 112.831V128.914L84.0699 120.899L84.061 120.881L70.1401 112.858L56.2102 104.816L42.2804 96.7744L28.3595 88.7328L28.3505 88.7149L14.4296 80.6912L14.4207 80.6733L0.499782 72.6496L0.490845 72.6317V56.5753L0.499782 56.5664L14.4207 64.5901V64.6169L14.4296 64.608L28.3505 72.6496L42.2804 80.6912L56.2102 88.7328L70.1401 96.7744L84.061 104.798V104.825L84.0699 104.816L97.9551 112.831Z" fill="white" stroke="#4E4A4A" stroke-width="0.5"/>
<path d="M195.491 56.5664V72.6496L181.561 80.6912L167.64 88.7417L153.71 96.7744L139.78 104.816L125.85 112.858L111.929 120.899L111.92 120.881V120.908L97.9995 128.941L97.9548 128.914V112.884L97.9995 112.858L111.92 104.816L125.85 96.7744L139.78 88.7328L153.71 80.7001L167.64 72.6496L181.561 64.608L195.491 56.5664Z" fill="url(#paint0_linear_80_514)" stroke="#363030" stroke-width="0.5"/>
<path d="M181.561 48.5244L167.64 40.4828L153.71 32.4412L139.781 24.3996L125.851 16.358L111.921 8.32528L97.9911 0.283691L97.9553 0.301565L84.0612 8.32528L70.1403 16.358L56.2104 24.4085L42.2806 32.4412L28.3508 40.4828L14.4298 48.5244H14.4209L0.5 56.566L14.4209 64.5987H14.4298L28.3508 72.6492L42.2806 80.6908L56.2104 88.7324L70.1403 96.774L84.0612 104.807H84.0702L97.9553 112.83L98 112.857L111.921 104.816L125.851 96.774L139.781 88.7324L153.71 80.6997L167.64 72.6492L181.561 64.6076L195.491 56.566L181.561 48.5244Z" fill="#EBEBEB" stroke="#434343" stroke-width="0.5"/>
<path d="M172.902 49.3154L160.439 42.1239L147.968 34.9324L135.497 27.7409L123.025 20.5494L110.554 13.3658L98.0832 6.17432L98.0512 6.1903L85.6121 13.3658L73.149 20.5494L60.6779 27.7488L48.2067 34.9324L35.7356 42.1239L23.2725 49.3154H23.2645L10.8014 56.5069L23.2645 63.6904H23.2725L35.7356 70.89L48.2067 78.0815L60.6779 85.273L73.149 92.4645L85.6121 99.648H85.6201L98.0512 106.824L98.0912 106.848L110.554 99.656L123.025 92.4645L135.497 85.273L147.968 78.0894L160.439 70.89L172.902 63.6985L185.373 56.5069L172.902 49.3154Z" stroke="white" stroke-width="0.5"/>
<defs>
<linearGradient id="paint0_linear_80_514" x1="146.723" y1="56.5664" x2="146.723" y2="128.941" gradientUnits="userSpaceOnUse">
<stop stop-color="#F0F0F0"/>
</linearGradient>
</defs>
</svg>
