<svg width="40" height="78" viewBox="0 0 40 78" fill="none" xmlns="http://www.w3.org/2000/svg">
<path d="M4.72021 47.2378H34.4825L30.2307 77H8.97196L4.72021 47.2378Z" fill="#2C211F" stroke="#FFD26D" stroke-width="2" stroke-linecap="round" stroke-linejoin="round"/>
<path d="M1 40.8601H38.2028V50.4265H1V40.8601Z" fill="#6B1806" stroke="#FFD26D" stroke-width="2" stroke-linecap="round" stroke-linejoin="round"/>
<path opacity="0.25" d="M7.90918 63.1819H31.2938" stroke="#FFD26D" stroke-width="2" stroke-linecap="round" stroke-linejoin="round"/>
<path d="M19.6016 40.8601V19.6013" stroke="#FFD26D" stroke-width="2" stroke-linecap="round" stroke-linejoin="round"/>
<path d="M19.6012 21.7274C12.1606 19.6015 7.90886 14.8183 6.31445 7.90918C13.755 8.97212 18.5382 13.2239 19.6012 21.7274Z" fill="#7FB072" stroke="#FFD26D" stroke-width="2" stroke-linecap="round" stroke-linejoin="round"/>
<path d="M20.6646 22.2588C28.6366 20.133 33.4198 15.3497 35.5457 7.90918C27.5736 8.44065 22.259 13.2239 20.6646 22.2588Z" fill="#6FA365" stroke="#FFD26D" stroke-width="2" stroke-linecap="round" stroke-linejoin="round"/>
<path d="M19.6013 17.4755C14.8181 13.2238 13.2237 7.90909 14.8181 1C21.1957 5.25175 22.7901 10.5664 19.6013 17.4755Z" fill="#8FC181" stroke="#FFD26D" stroke-width="2" stroke-linecap="round" stroke-linejoin="round"/>
</svg>
