<svg width="42" height="68" viewBox="0 0 42 68" fill="none" xmlns="http://www.w3.org/2000/svg">
<path d="M3.73389 45.1301H37.3197V59.1893H3.73389V45.1301Z" fill="#6F1C0A" stroke="#FFC783" stroke-width="2" stroke-linecap="round" stroke-linejoin="round"/>
<path d="M3.73389 59.1895H37.3197" stroke="#FFC783" stroke-width="2" stroke-linecap="round" stroke-linejoin="round"/>
<path d="M8.02959 59.1895L1 67.0001M33.0237 59.1895L40.0533 67.0001" stroke="#FFC783" stroke-width="2" stroke-linecap="round" stroke-linejoin="round"/>
<path d="M20.5268 45.1302C8.02971 45.1302 0.219058 34.9763 2.17172 22.0888C3.73385 9.98225 11.5445 1 20.5268 1C29.509 1 37.3197 9.98225 38.8818 22.0888C40.8344 34.9763 33.0238 45.1302 20.5268 45.1302Z" fill="#7FB66B" stroke="#FFC783" stroke-width="2" stroke-linecap="round" stroke-linejoin="round"/>
<path opacity="0.35" d="M20.5265 2.17163C17.7928 15.8403 17.7928 29.8994 20.5265 44.3491M11.5443 8.42015C8.42001 19.7456 8.81054 31.4616 12.7159 42.3965M29.5088 8.42015C32.633 19.7456 32.2425 31.4616 28.3372 42.3965" stroke="#FFC783" stroke-width="2" stroke-linecap="round" stroke-linejoin="round"/>
<path d="M13.1067 16.6212C13.5381 16.6212 13.8878 16.2715 13.8878 15.8401C13.8878 15.4088 13.5381 15.0591 13.1067 15.0591C12.6754 15.0591 12.3257 15.4088 12.3257 15.8401C12.3257 16.2715 12.6754 16.6212 13.1067 16.6212Z" fill="#FFC783"/>
<path d="M20.9173 12.7159C21.3487 12.7159 21.6984 12.3662 21.6984 11.9349C21.6984 11.5035 21.3487 11.1538 20.9173 11.1538C20.4859 11.1538 20.1362 11.5035 20.1362 11.9349C20.1362 12.3662 20.4859 12.7159 20.9173 12.7159Z" fill="#FFC783"/>
<path d="M29.1185 17.4025C29.5498 17.4025 29.8995 17.0528 29.8995 16.6214C29.8995 16.19 29.5498 15.8403 29.1185 15.8403C28.6871 15.8403 28.3374 16.19 28.3374 16.6214C28.3374 17.0528 28.6871 17.4025 29.1185 17.4025Z" fill="#FFC783"/>
<path d="M10.7635 26.7753C11.1949 26.7753 11.5446 26.4256 11.5446 25.9942C11.5446 25.5628 11.1949 25.2131 10.7635 25.2131C10.3321 25.2131 9.98242 25.5628 9.98242 25.9942C9.98242 26.4256 10.3321 26.7753 10.7635 26.7753Z" fill="#FFC783"/>
<path d="M20.9173 24.8224C21.3487 24.8224 21.6984 24.4727 21.6984 24.0413C21.6984 23.6099 21.3487 23.2603 20.9173 23.2603C20.4859 23.2603 20.1362 23.6099 20.1362 24.0413C20.1362 24.4727 20.4859 24.8224 20.9173 24.8224Z" fill="#FFC783"/>
<path d="M30.6805 27.5563C31.1118 27.5563 31.4615 27.2066 31.4615 26.7752C31.4615 26.3438 31.1118 25.9941 30.6805 25.9941C30.2491 25.9941 29.8994 26.3438 29.8994 26.7752C29.8994 27.2066 30.2491 27.5563 30.6805 27.5563Z" fill="#FFC783"/>
<path d="M15.0594 37.3195C15.4908 37.3195 15.8405 36.9698 15.8405 36.5384C15.8405 36.107 15.4908 35.7573 15.0594 35.7573C14.628 35.7573 14.2783 36.107 14.2783 36.5384C14.2783 36.9698 14.628 37.3195 15.0594 37.3195Z" fill="#FFC783"/>
<path d="M25.6033 37.7101C26.0347 37.7101 26.3844 37.3604 26.3844 36.929C26.3844 36.4976 26.0347 36.1479 25.6033 36.1479C25.172 36.1479 24.8223 36.4976 24.8223 36.929C24.8223 37.3604 25.172 37.7101 25.6033 37.7101Z" fill="#FFC783"/>
</svg>
