<svg width="75" height="71" viewBox="0 0 75 71" fill="none" xmlns="http://www.w3.org/2000/svg">
<path d="M37.4999 49.9528C56.9468 49.9528 72.7116 46.6845 72.7116 42.6528C72.7116 38.6211 56.9468 35.3528 37.4999 35.3528C18.0529 35.3528 2.28809 38.6211 2.28809 42.6528C2.28809 46.6845 18.0529 49.9528 37.4999 49.9528Z" fill="#191717" stroke="#FFC783" stroke-width="2" stroke-linecap="round" stroke-linejoin="round"/>
<path d="M4.00586 42.6528C7.44115 61.1175 19.0353 69.7058 37.5 69.7058C55.9647 69.7058 67.5588 61.1175 70.9941 42.6528" fill="#360E07"/>
<path d="M4.00586 42.6528C7.44115 61.1175 19.0353 69.7058 37.5 69.7058C55.9647 69.7058 67.5588 61.1175 70.9941 42.6528" stroke="#FFC783" stroke-width="2" stroke-linecap="round" stroke-linejoin="round"/>
<path d="M37.5002 39.2176C31.4884 25.9059 31.9178 13.0235 37.5002 1C43.9413 13.4529 43.9413 26.7647 37.5002 39.2176Z" fill="#76AD6C" stroke="#FFC783" stroke-width="2" stroke-linecap="round" stroke-linejoin="round"/>
<path d="M29.3412 40.5057C19.0353 31.4881 14.7412 20.3234 16.0294 8.72925C26.7647 14.741 31.9177 26.3351 29.3412 40.5057Z" fill="#83BD78" stroke="#FFC783" stroke-width="2" stroke-linecap="round" stroke-linejoin="round"/>
<path d="M45.6588 40.5057C55.9647 31.4881 60.2588 20.3234 58.9706 8.72925C48.2353 14.741 43.0823 26.3351 45.6588 40.5057Z" fill="#83BD78" stroke="#FFC783" stroke-width="2" stroke-linecap="round" stroke-linejoin="round"/>
<path d="M22.4706 41.3647C10.8765 37.0706 3.14706 27.6235 1 17.3176C12.1647 19.8941 20.3235 28.0529 22.4706 41.3647Z" fill="#8BC57D" stroke="#FFC783" stroke-width="2" stroke-linecap="round" stroke-linejoin="round"/>
<path d="M52.5293 41.3647C64.1234 37.0706 71.8528 27.6235 73.9999 17.3176C62.8352 19.8941 54.6764 28.0529 52.5293 41.3647Z" fill="#8BC57D" stroke="#FFC783" stroke-width="2" stroke-linecap="round" stroke-linejoin="round"/>
<path opacity="0.35" d="M34.0645 38.3588C30.1998 28.4823 30.1998 18.6059 34.0645 7.44116M40.9351 38.3588C45.2293 28.4823 45.2293 18.6059 40.9351 7.44116" stroke="#FFC783" stroke-width="2" stroke-linecap="round" stroke-linejoin="round"/>
<path opacity="0.35" d="M20.3233 37.9293C14.3116 32.3469 10.4469 25.9057 8.2998 19.0352M54.6763 37.9293C60.688 32.3469 64.5527 25.9057 66.6998 19.0352" stroke="#FFC783" stroke-width="2" stroke-linecap="round" stroke-linejoin="round"/>
</svg>
