<svg width="64" height="74" viewBox="0 0 64 74" fill="none" xmlns="http://www.w3.org/2000/svg">
<path d="M4.66895 38.1465H47.7772L42.274 73H10.1721L4.66895 38.1465Z" fill="#360E07" stroke="#FFC783" stroke-width="2" stroke-linecap="round" stroke-linejoin="round"/>
<path d="M26.2227 43.6497C39.6464 43.6497 50.5285 41.1858 50.5285 38.1465C50.5285 35.1072 39.6464 32.6433 26.2227 32.6433C12.799 32.6433 1.91699 35.1072 1.91699 38.1465C1.91699 41.1858 12.799 43.6497 26.2227 43.6497Z" fill="#491406" stroke="#FFC783" stroke-width="2" stroke-linecap="round" stroke-linejoin="round"/>
<path d="M24.8472 36.3121C16.5924 26.2229 15.2166 14.2994 21.637 1C30.809 8.79618 34.0192 21.1783 24.8472 36.3121Z" fill="#7BAE69" stroke="#FFC783" stroke-width="2" stroke-linecap="round" stroke-linejoin="round"/>
<path d="M28.5157 37.2293C38.6049 30.8089 44.5667 21.1783 45.0253 8.79614C34.0189 12.0063 27.14 21.1783 28.5157 37.2293Z" fill="#86BC76" stroke="#FFC783" stroke-width="2" stroke-linecap="round" stroke-linejoin="round"/>
<path d="M20.2611 35.3949C11.0892 32.1847 4.21019 25.3058 1 16.1338C11.0892 16.5924 18.8854 23.0128 20.2611 35.3949Z" fill="#8BC57D" stroke="#FFC783" stroke-width="2" stroke-linecap="round" stroke-linejoin="round"/>
<path d="M31.2676 34.9362C39.5224 36.312 47.7771 32.6432 53.7389 25.3057C45.0255 22.0955 36.7708 24.8471 31.2676 34.9362Z" fill="#7BAE69" stroke="#FFC783" stroke-width="2" stroke-linecap="round" stroke-linejoin="round"/>
<path d="M38.605 38.2289C48.2356 41.8977 56.0317 40.9805 62.9107 35.0187C55.1145 30.4327 45.9426 31.3499 38.605 38.2289Z" fill="#8BC57D" stroke="#FFC783" stroke-width="2" stroke-linecap="round" stroke-linejoin="round"/>
<path d="M30.8091 38.9859C38.1467 39.4445 44.1084 36.6929 48.6944 30.7311C41.8155 28.4381 34.9365 30.7311 30.8091 38.9859Z" fill="#8BC57D" stroke="#FFC783" stroke-width="2" stroke-linecap="round" stroke-linejoin="round"/>
<path d="M15.2168 40.4777C9.71361 38.6433 5.58622 34.9745 3.29323 29.0127C9.25501 28.5541 14.2996 32.2229 15.2168 40.4777Z" fill="#7BAE69" stroke="#FFC783" stroke-width="2" stroke-linecap="round" stroke-linejoin="round"/>
<path opacity="0.35" d="M20.7197 36.3122C14.7579 31.7262 9.25475 28.0574 3.29297 25.7644M31.2675 35.395C38.1465 30.809 42.7325 24.8472 47.3184 17.9683M38.1465 38.6052C44.5669 38.1466 50.5286 37.2294 57.8662 33.5606" stroke="#FFC783" stroke-width="2" stroke-linecap="round" stroke-linejoin="round"/>
</svg>
