<svg width="58" height="82" viewBox="0 0 58 82" fill="none" xmlns="http://www.w3.org/2000/svg">
<path d="M2.90479 50.0476H42.9048L38.1429 81H7.66669L2.90479 50.0476Z" fill="#6B1806" stroke="#FFC783" stroke-width="2" stroke-linecap="round" stroke-linejoin="round"/>
<path d="M1 42.4285H44.8095V51.9523H1V42.4285Z" fill="#491406" stroke="#FFC783" stroke-width="2" stroke-linecap="round" stroke-linejoin="round"/>
<path d="M15.2856 41.9524V19.0952C15.2856 8.61905 21.4761 1 30.0475 1C38.619 1 44.8095 8.61905 44.8095 19.0952V41.9524" fill="#80B565"/>
<path d="M15.2856 41.9524V19.0952C15.2856 8.61905 21.4761 1 30.0475 1C38.619 1 44.8095 8.61905 44.8095 19.0952V41.9524" stroke="#FFC783" stroke-width="2" stroke-linecap="round" stroke-linejoin="round"/>
<path d="M26.238 41.9525V22.9049C26.238 14.3334 20.9999 8.61914 13.857 8.61914C6.71417 8.61914 1.47607 14.3334 1.47607 22.9049V41.9525" fill="#80B565"/>
<path d="M26.238 41.9525V22.9049C26.238 14.3334 20.9999 8.61914 13.857 8.61914C6.71417 8.61914 1.47607 14.3334 1.47607 22.9049V41.9525" stroke="#FFC783" stroke-width="2" stroke-linecap="round" stroke-linejoin="round"/>
<path opacity="0.35" d="M30.524 1.95239V41.9524M8.14307 9.57144V41.9524" stroke="#FFC783" stroke-width="2" stroke-linecap="round" stroke-linejoin="round"/>
<path d="M23.3811 12.9048C23.9071 12.9048 24.3335 12.4784 24.3335 11.9524C24.3335 11.4264 23.9071 11 23.3811 11C22.8551 11 22.4287 11.4264 22.4287 11.9524C22.4287 12.4784 22.8551 12.9048 23.3811 12.9048Z" fill="#FFC783"/>
<path d="M34.3332 15.2856C34.8592 15.2856 35.2856 14.8592 35.2856 14.3332C35.2856 13.8073 34.8592 13.3809 34.3332 13.3809C33.8073 13.3809 33.3809 13.8073 33.3809 14.3332C33.3809 14.8592 33.8073 15.2856 34.3332 15.2856Z" fill="#FFC783"/>
<path d="M27.6667 24.8095C28.1927 24.8095 28.6191 24.3832 28.6191 23.8572C28.6191 23.3312 28.1927 22.9048 27.6667 22.9048C27.1408 22.9048 26.7144 23.3312 26.7144 23.8572C26.7144 24.3832 27.1408 24.8095 27.6667 24.8095Z" fill="#FFC783"/>
<path d="M37.6667 31.9524C38.1927 31.9524 38.6191 31.526 38.6191 31C38.6191 30.474 38.1927 30.0476 37.6667 30.0476C37.1408 30.0476 36.7144 30.474 36.7144 31C36.7144 31.526 37.1408 31.9524 37.6667 31.9524Z" fill="#FFC783"/>
<path d="M19.5715 34.3332C20.0975 34.3332 20.5239 33.9068 20.5239 33.3808C20.5239 32.8549 20.0975 32.4285 19.5715 32.4285C19.0455 32.4285 18.6191 32.8549 18.6191 33.3808C18.6191 33.9068 19.0455 34.3332 19.5715 34.3332Z" fill="#FFC783"/>
<path d="M4.80931 20.0476C5.3353 20.0476 5.7617 19.6212 5.7617 19.0952C5.7617 18.5692 5.3353 18.1428 4.80931 18.1428C4.28333 18.1428 3.85693 18.5692 3.85693 19.0952C3.85693 19.6212 4.28333 20.0476 4.80931 20.0476Z" fill="#FFC783"/>
<path d="M12.9045 28.6191C13.4305 28.6191 13.8569 28.1927 13.8569 27.6667C13.8569 27.1408 13.4305 26.7144 12.9045 26.7144C12.3785 26.7144 11.9521 27.1408 11.9521 27.6667C11.9521 28.1927 12.3785 28.6191 12.9045 28.6191Z" fill="#FFC783"/>
<path d="M2.42846 36.7143C2.95444 36.7143 3.38084 36.2879 3.38084 35.762C3.38084 35.236 2.95444 34.8096 2.42846 34.8096C1.90247 34.8096 1.47607 35.236 1.47607 35.762C1.47607 36.2879 1.90247 36.7143 2.42846 36.7143Z" fill="#FFC783"/>
<path d="M46.7143 9.09528C42.4286 10.0477 40.5238 6.71433 42.4286 3.85719C44.8095 0.523853 48.1429 1.95242 48.6191 5.28576C49.5714 1.47623 53.381 0.523853 55.7619 3.381C58.1429 6.23814 56.2381 10.0477 52.4286 10.5239C55.7619 12.9048 54.3334 16.7143 50.5238 17.1905C47.1905 17.6667 45.2857 14.8096 46.7143 11C43.381 13.381 40.0476 11.9524 39.5714 8.61909C39.3334 5.76195 42.4286 4.80957 46.7143 9.09528Z" fill="#D97930" stroke="#FFC783" stroke-width="2" stroke-linecap="round" stroke-linejoin="round"/>
<path d="M48.6191 11C49.6711 11 50.5239 10.1472 50.5239 9.09519C50.5239 8.04322 49.6711 7.19043 48.6191 7.19043C47.5671 7.19043 46.7144 8.04322 46.7144 9.09519C46.7144 10.1472 47.5671 11 48.6191 11Z" fill="#F3B14F" stroke="#FFC783" stroke-width="2" stroke-linecap="round" stroke-linejoin="round"/>
</svg>
