<svg width="46" height="66" viewBox="0 0 46 66" fill="none" xmlns="http://www.w3.org/2000/svg">
<path d="M2.25635 39.0315H32.4136L28.2251 65.0002H6.44485L2.25635 39.0315Z" fill="#360E07" stroke="#FFA941" stroke-width="2" stroke-linecap="round" stroke-linejoin="round"/>
<path d="M18.1729 43.22C27.6572 43.22 35.3457 41.3448 35.3457 39.0315C35.3457 36.7183 27.6572 34.843 18.1729 34.843C8.68855 34.843 1 36.7183 1 39.0315C1 41.3448 8.68855 43.22 18.1729 43.22Z" fill="#F5D6D0" stroke="#FFA941" stroke-width="2" stroke-linecap="round" stroke-linejoin="round"/>
<path d="M17.335 38.1938C7.70144 36.0996 3.09409 27.3037 5.18834 15.1571C6.86374 4.68583 13.5653 -1.17807 20.6858 1.75388C26.5497 4.26698 27.8062 11.3874 25.712 19.7644C31.157 14.3194 38.2775 13.4817 42.466 18.5079C46.6545 23.9529 44.1414 34.0053 36.6021 39.0315C30.7382 42.8012 24.0366 42.3823 17.335 38.1938Z" fill="#3FA99B" stroke="#FFA941" stroke-width="2" stroke-linecap="round" stroke-linejoin="round"/>
<path opacity="0.45" d="M13.9844 37.3561C14.8221 24.3718 14.4032 13.4817 18.1729 2.59155" stroke="#FFA941" stroke-width="2" stroke-linecap="round" stroke-linejoin="round"/>
<path opacity="0.45" d="M25.2935 36.9372C26.9689 27.7225 30.3197 21.4397 37.859 17.2512" stroke="#FFA941" stroke-width="2" stroke-linecap="round" stroke-linejoin="round"/>
<path d="M10.6336 13.0629C11.0962 13.0629 11.4713 12.6878 11.4713 12.2252C11.4713 11.7625 11.0962 11.3875 10.6336 11.3875C10.1709 11.3875 9.7959 11.7625 9.7959 12.2252C9.7959 12.6878 10.1709 13.0629 10.6336 13.0629Z" fill="#FFA941"/>
<path d="M16.4974 10.131C16.96 10.131 17.3351 9.75592 17.3351 9.29327C17.3351 8.83062 16.96 8.45557 16.4974 8.45557C16.0347 8.45557 15.6597 8.83062 15.6597 9.29327C15.6597 9.75592 16.0347 10.131 16.4974 10.131Z" fill="#FFA941"/>
<path d="M23.618 14.7381C24.0806 14.7381 24.4557 14.3631 24.4557 13.9004C24.4557 13.4378 24.0806 13.0627 23.618 13.0627C23.1553 13.0627 22.7803 13.4378 22.7803 13.9004C22.7803 14.3631 23.1553 14.7381 23.618 14.7381Z" fill="#FFA941"/>
<path d="M11.0525 22.6964C11.5152 22.6964 11.8902 22.3213 11.8902 21.8587C11.8902 21.396 11.5152 21.021 11.0525 21.021C10.5899 21.021 10.2148 21.396 10.2148 21.8587C10.2148 22.3213 10.5899 22.6964 11.0525 22.6964Z" fill="#FFA941"/>
<path d="M20.2669 23.1153C20.7295 23.1153 21.1046 22.7403 21.1046 22.2776C21.1046 21.815 20.7295 21.4399 20.2669 21.4399C19.8043 21.4399 19.4292 21.815 19.4292 22.2776C19.4292 22.7403 19.8043 23.1153 20.2669 23.1153Z" fill="#FFA941"/>
<path d="M31.576 25.2096C32.0386 25.2096 32.4137 24.8345 32.4137 24.3719C32.4137 23.9092 32.0386 23.5342 31.576 23.5342C31.1133 23.5342 30.7383 23.9092 30.7383 24.3719C30.7383 24.8345 31.1133 25.2096 31.576 25.2096Z" fill="#FFA941"/>
<path d="M15.66 31.911C16.1226 31.911 16.4977 31.5359 16.4977 31.0733C16.4977 30.6106 16.1226 30.2356 15.66 30.2356C15.1973 30.2356 14.8223 30.6106 14.8223 31.0733C14.8223 31.5359 15.1973 31.911 15.66 31.911Z" fill="#FFA941"/>
<path d="M27.3875 33.1676C27.8502 33.1676 28.2252 32.7925 28.2252 32.3299C28.2252 31.8672 27.8502 31.4922 27.3875 31.4922C26.9249 31.4922 26.5498 31.8672 26.5498 32.3299C26.5498 32.7925 26.9249 33.1676 27.3875 33.1676Z" fill="#FFA941"/>
</svg>
