<svg width="24" height="23" viewBox="0 0 24 23" fill="none" xmlns="http://www.w3.org/2000/svg">
<path d="M21.8999 13.46C22.1699 15.13 21.6999 16.92 20.2699 18.18C19.2799 19.09 17.9799 19.59 16.6299 19.58H5.53994C0.869942 19.24 0.859942 12.44 5.53994 12.1H5.58994C3.39994 5.96998 9.08994 2.36998 13.3799 3.74998" stroke="white" stroke-width="1.5" stroke-miterlimit="10" stroke-linecap="round" stroke-linejoin="round"/>
<path d="M7.25984 12.51C6.73984 12.25 6.16984 12.11 5.58984 12.1" stroke="white" stroke-width="1.5" stroke-miterlimit="10" stroke-linecap="round" stroke-linejoin="round"/>
<path d="M21.9702 8C21.9702 9.1 21.4602 10.09 20.6502 10.73C20.0602 11.21 19.2902 11.5 18.4702 11.5C16.5402 11.5 14.9702 9.93 14.9702 8C14.9702 7.04 15.3602 6.17 16.0002 5.54V5.53C16.6302 4.89 17.5102 4.5 18.4702 4.5C20.4002 4.5 21.9702 6.07 21.9702 8Z" stroke="white" stroke-width="1.5" stroke-miterlimit="10" stroke-linecap="round" stroke-linejoin="round"/>
</svg>
