<svg width="68" height="67" viewBox="0 0 68 67" fill="none" xmlns="http://www.w3.org/2000/svg">
<g filter="url(#filter0_d_552_3975)">
<g filter="url(#filter1_i_552_3975)">
<path d="M16.5724 22.2898C16.4062 23.7591 21.0727 26.5753 23.4268 27.7997C20.7958 27.8677 15.0353 28.5752 13.0413 30.8608C10.5488 33.7177 3.4867 49.4311 4.31753 52.4922C4.97985 54.9324 23.8483 57.5752 33.6408 58.1996C43.4378 57.5752 62.925 54.9324 63.5873 52.4922C64.4181 49.4311 57.356 33.7177 54.8635 30.8608C52.8695 28.5752 47.109 27.8677 44.478 27.7997C46.8321 26.5753 51.4986 23.7591 51.3324 22.2898C51.1247 20.4532 47.8014 11.066 46.5551 9.63747C45.3089 8.20898 38.1066 0.454314 33.7447 0.250244C29.3828 0.454314 22.5959 8.20898 21.3497 9.63747C20.1034 11.066 16.7801 20.4532 16.5724 22.2898Z" fill="url(#paint0_linear_552_3975)"/>
</g>
<path d="M33.7447 58.2062C23.9824 57.5939 4.9822 54.941 4.31753 52.4922C3.4867 49.4311 10.5488 33.7177 13.0413 30.8608C15.0353 28.5752 20.7958 27.8677 23.4268 27.7997C21.0727 26.5753 16.4062 23.7591 16.5724 22.2898C16.7801 20.4532 20.1034 11.066 21.3497 9.63747C22.5959 8.20898 29.3828 0.454314 33.7447 0.250244C38.1066 0.454314 45.3089 8.20898 46.5551 9.63747C47.8014 11.066 51.1247 20.4532 51.3324 22.2898C51.4986 23.7591 46.8321 26.5753 44.478 27.7997C47.109 27.8677 52.8695 28.5752 54.8635 30.8608C57.356 33.7177 64.4181 49.4311 63.5873 52.4922C62.9226 54.941 43.2993 57.5939 33.537 58.2062" stroke="#222222" stroke-width="0.5"/>
<path d="M40.6816 17.7378C41.5048 17.7445 42.1455 17.8875 42.582 18.2778C43.0161 18.666 43.2705 19.3194 43.2705 20.3999C43.2704 22.5592 42.2547 25.0404 40.6064 26.9829C38.9584 28.9251 36.69 30.3148 34.1943 30.3149C31.6985 30.3149 29.4294 28.9252 27.7812 26.9829C26.133 25.0404 25.1173 22.5592 25.1172 20.3999C25.1172 19.3194 25.3716 18.666 25.8057 18.2778C26.2422 17.8875 26.8829 17.7446 27.7061 17.7378C28.5283 17.731 29.5092 17.8597 30.6104 17.9917C31.7084 18.1233 32.9209 18.2573 34.1943 18.2573C35.4675 18.2573 36.6795 18.1233 37.7773 17.9917C38.8784 17.8597 39.8594 17.7311 40.6816 17.7378Z" fill="url(#paint1_linear_552_3975)" stroke="url(#paint2_linear_552_3975)" stroke-width="0.2"/>
</g>
<path d="M5.92334 26.3665H63.0239C64.6565 26.3666 65.8513 27.9061 65.4458 29.4875L58.7417 55.6301C58.4582 56.7358 57.4613 57.5089 56.3198 57.509H13.7769C12.6734 57.5089 11.7009 56.7855 11.3833 55.7288L3.52979 29.5862C3.04792 27.9821 4.24853 26.3667 5.92334 26.3665Z" fill="url(#paint3_linear_552_3975)"/>
<path d="M5.92334 26.3665H63.0239C64.6565 26.3666 65.8513 27.9061 65.4458 29.4875L58.7417 55.6301C58.4582 56.7358 57.4613 57.5089 56.3198 57.509H13.7769C12.6734 57.5089 11.7009 56.7855 11.3833 55.7288L3.52979 29.5862C3.04792 27.9821 4.24853 26.3667 5.92334 26.3665Z" fill="url(#paint4_linear_552_3975)" fill-opacity="0.2"/>
<path d="M5.92334 26.3665H63.0239C64.6565 26.3666 65.8513 27.9061 65.4458 29.4875L58.7417 55.6301C58.4582 56.7358 57.4613 57.5089 56.3198 57.509H13.7769C12.6734 57.5089 11.7009 56.7855 11.3833 55.7288L3.52979 29.5862C3.04792 27.9821 4.24853 26.3667 5.92334 26.3665Z" stroke="url(#paint5_linear_552_3975)"/>
<path d="M38.8584 46.9683H28.7588L33.8086 37.3472L38.8584 46.9683Z" fill="black" stroke="white" stroke-width="0.5"/>
<defs>
<filter id="filter0_d_552_3975" x="0" y="0" width="67.9048" height="66.4557" filterUnits="userSpaceOnUse" color-interpolation-filters="sRGB">
<feFlood flood-opacity="0" result="BackgroundImageFix"/>
<feColorMatrix in="SourceAlpha" type="matrix" values="0 0 0 0 0 0 0 0 0 0 0 0 0 0 0 0 0 0 127 0" result="hardAlpha"/>
<feOffset dy="4"/>
<feGaussianBlur stdDeviation="2"/>
<feComposite in2="hardAlpha" operator="out"/>
<feColorMatrix type="matrix" values="0 0 0 0 0 0 0 0 0 0 0 0 0 0 0 0 0 0 0.25 0"/>
<feBlend mode="normal" in2="BackgroundImageFix" result="effect1_dropShadow_552_3975"/>
<feBlend mode="normal" in="SourceGraphic" in2="effect1_dropShadow_552_3975" result="shape"/>
</filter>
<filter id="filter1_i_552_3975" x="4" y="0" width="59.9048" height="62.4557" filterUnits="userSpaceOnUse" color-interpolation-filters="sRGB">
<feFlood flood-opacity="0" result="BackgroundImageFix"/>
<feBlend mode="normal" in="SourceGraphic" in2="BackgroundImageFix" result="shape"/>
<feColorMatrix in="SourceAlpha" type="matrix" values="0 0 0 0 0 0 0 0 0 0 0 0 0 0 0 0 0 0 127 0" result="hardAlpha"/>
<feOffset dy="4"/>
<feGaussianBlur stdDeviation="2"/>
<feComposite in2="hardAlpha" operator="arithmetic" k2="-1" k3="1"/>
<feColorMatrix type="matrix" values="0 0 0 0 0.177885 0 0 0 0 0.177885 0 0 0 0 0.177885 0 0 0 0.25 0"/>
<feBlend mode="normal" in2="shape" result="effect1_innerShadow_552_3975"/>
</filter>
<linearGradient id="paint0_linear_552_3975" x1="55.4107" y1="8.67407" x2="12.2807" y2="29.2282" gradientUnits="userSpaceOnUse">
<stop stop-color="#0D0D0D"/>
</linearGradient>
<linearGradient id="paint1_linear_552_3975" x1="34.3495" y1="19.5025" x2="34.3495" y2="70.3273" gradientUnits="userSpaceOnUse">
<stop stop-color="#090909"/>
<stop offset="0.479338" stop-color="#454545" stop-opacity="0.8"/>
</linearGradient>
<linearGradient id="paint2_linear_552_3975" x1="34.1939" y1="17.6372" x2="34.1939" y2="30.4149" gradientUnits="userSpaceOnUse">
<stop/>
<stop offset="1" stop-color="#272424"/>
</linearGradient>
<linearGradient id="paint3_linear_552_3975" x1="34.3901" y1="25.8665" x2="34.3901" y2="58.0093" gradientUnits="userSpaceOnUse">
<stop stop-color="#1B1A1A"/>
<stop offset="1" stop-color="#0D0D0D"/>
</linearGradient>
<linearGradient id="paint4_linear_552_3975" x1="40.6102" y1="37.8345" x2="15.452" y2="60.4071" gradientUnits="userSpaceOnUse">
<stop offset="0.500699" stop-color="#707070" stop-opacity="0"/>
<stop offset="1"/>
</linearGradient>
<linearGradient id="paint5_linear_552_3975" x1="34.3901" y1="25.8665" x2="34.3901" y2="58.0093" gradientUnits="userSpaceOnUse">
<stop stop-color="#181717"/>
<stop offset="1" stop-color="#212121"/>
</linearGradient>
</defs>
</svg>
